<svg xmlns="http://www.w3.org/2000/svg" xmlns:xlink="http://www.w3.org/1999/xlink" viewBox="0,0,256,256" width="25px" height="25px"><g fill="none" fill-rule="nonzero" stroke="none" stroke-width="none" stroke-linecap="none" stroke-linejoin="none" stroke-miterlimit="10" stroke-dasharray="" stroke-dashoffset="0" font-family="none" font-weight="none" font-size="none" text-anchor="none" style="mix-blend-mode: normal"><g transform="scale(4,4)"><path d="M50,54h-36c-2.209,0 -4,-1.791 -4,-4v-36c0,-2.209 1.791,-4 4,-4h36c2.209,0 4,1.791 4,4v36c0,2.209 -1.791,4 -4,4z" fill="#000000" stroke="none" stroke-width="1" stroke-linecap="butt" stroke-linejoin="miter"></path><ellipse cx="32" cy="61" rx="20" ry="3" fill="#000000" stroke="none" stroke-width="1" stroke-linecap="butt" stroke-linejoin="miter" opacity="0.3"></ellipse><rect x="21" y="-54" transform="rotate(90)" width="4" height="44" fill="#ffffff" stroke="none" stroke-width="1" stroke-linecap="butt" stroke-linejoin="miter"></rect><rect x="39" y="-54" transform="rotate(90)" width="4" height="44" fill="#ffffff" stroke="none" stroke-width="1" stroke-linecap="butt" stroke-linejoin="miter"></rect><rect x="-42" y="-54" transform="rotate(-180)" width="4" height="44" fill="#ffffff" stroke="none" stroke-width="1" stroke-linecap="butt" stroke-linejoin="miter"></rect><rect x="-26" y="-54" transform="rotate(-180)" width="4" height="44" fill="#ffffff" stroke="none" stroke-width="1" stroke-linecap="butt" stroke-linejoin="miter"></rect><path d="M38,10h-24c-2.209,0 -4,1.791 -4,4v25c2.761,0 5,-2.238 5,-5v-18c0,-0.552 0.448,-1 1,-1h17c2.761,0 5,-2.238 5,-5z" fill="#ffffff" stroke="none" stroke-width="1" stroke-linecap="butt" stroke-linejoin="miter" opacity="0.3"></path><path d="M54,50v-25c-2.761,0 -5,2.238 -5,5v18c0,0.552 -0.448,1 -1,1h-17c-2.761,0 -5,2.238 -5,5h24c2.209,0 4,-1.791 4,-4z" fill="#000000" stroke="none" stroke-width="1" stroke-linecap="butt" stroke-linejoin="miter" opacity="0.15"></path><path d="M13.5,17.5v-3.5c0,-0.275 0.224,-0.5 0.5,-0.5h2.5" fill="none" stroke="#ffffff" stroke-width="3" stroke-linecap="round" stroke-linejoin="round"></path></g></g></svg>