<svg xmlns="http://www.w3.org/2000/svg" xmlns:xlink="http://www.w3.org/1999/xlink" viewBox="0,0,256,256" width="25px" height="25px"><g fill="none" fill-rule="nonzero" stroke="none" stroke-width="1" stroke-linecap="butt" stroke-linejoin="miter" stroke-miterlimit="10" stroke-dasharray="" stroke-dashoffset="0" font-family="none" font-weight="none" font-size="none" text-anchor="none" style="mix-blend-mode: normal"><g transform="scale(2.56,2.56)"><path d="M84.5,15h-41c-2.088,0 -3.943,0.993 -5.133,2.528c-2.707,-3.938 -7.238,-6.528 -12.367,-6.528c-8.271,0 -15,6.729 -15,15c0,5.558 3.046,10.409 7.549,13c-4.503,2.591 -7.549,7.442 -7.549,13c0,5.558 3.046,10.409 7.549,13c-4.503,2.591 -7.549,7.442 -7.549,13c0,8.271 6.729,15 15,15c5.129,0 9.66,-2.59 12.367,-6.528c1.19,1.535 3.045,2.528 5.133,2.528h41c3.584,0 6.5,-2.916 6.5,-6.5v-61c0,-3.584 -2.916,-6.5 -6.5,-6.5z" fill="#000000" opacity="0.35"></path><path d="M82.5,13h-41c-2.088,0 -3.943,0.993 -5.133,2.528c-2.707,-3.938 -7.238,-6.528 -12.367,-6.528c-8.271,0 -15,6.729 -15,15c0,5.558 3.046,10.409 7.549,13c-4.503,2.591 -7.549,7.442 -7.549,13c0,5.558 3.046,10.409 7.549,13c-4.503,2.591 -7.549,7.442 -7.549,13c0,8.271 6.729,15 15,15c5.129,0 9.66,-2.59 12.367,-6.528c1.19,1.535 3.045,2.528 5.133,2.528h41c3.584,0 6.5,-2.916 6.5,-6.5v-61c0,-3.584 -2.916,-6.5 -6.5,-6.5z" fill="#f8f8f8"></path><circle cx="24" cy="50" r="8.5" fill="#000000"></circle><path d="M24,60c-5.514,0 -10,-4.486 -10,-10c0,-5.514 4.486,-10 10,-10c5.514,0 10,4.486 10,10c0,5.514 -4.486,10 -10,10zM24,43c-3.86,0 -7,3.141 -7,7c0,3.859 3.14,7 7,7c3.86,0 7,-3.141 7,-7c0,-3.859 -3.14,-7 -7,-7z" fill="#000000"></path><circle cx="24" cy="76" r="8.5" fill="#000000"></circle><path d="M24,86c-5.514,0 -10,-4.486 -10,-10c0,-5.514 4.486,-10 10,-10c5.514,0 10,4.486 10,10c0,5.514 -4.486,10 -10,10zM24,69c-3.86,0 -7,3.141 -7,7c0,3.859 3.14,7 7,7c3.86,0 7,-3.141 7,-7c0,-3.859 -3.14,-7 -7,-7z" fill="#000000"></path><circle cx="24" cy="24" r="8.5" fill="#000000"></circle><path d="M24,34c-5.514,0 -10,-4.486 -10,-10c0,-5.514 4.486,-10 10,-10c5.514,0 10,4.486 10,10c0,5.514 -4.486,10 -10,10zM24,17c-3.86,0 -7,3.141 -7,7c0,3.859 3.14,7 7,7c3.86,0 7,-3.141 7,-7c0,-3.859 -3.14,-7 -7,-7z" fill="#000000"></path><g fill="#000000"><rect x="41.5" y="19.5" width="41" height="9"></rect><path d="M82.5,30h-41c-0.829,0 -1.5,-0.672 -1.5,-1.5v-9c0,-0.828 0.671,-1.5 1.5,-1.5h41c0.829,0 1.5,0.672 1.5,1.5v9c0,0.828 -0.671,1.5 -1.5,1.5zM43,27h38v-6h-38z"></path></g><g fill="#000000"><rect x="41.5" y="45.5" width="41" height="9"></rect><path d="M82.5,56h-41c-0.829,0 -1.5,-0.672 -1.5,-1.5v-9c0,-0.828 0.671,-1.5 1.5,-1.5h41c0.829,0 1.5,0.672 1.5,1.5v9c0,0.828 -0.671,1.5 -1.5,1.5zM43,53h38v-6h-38z"></path></g><g fill="#000000"><rect x="41.5" y="71.5" width="41" height="9"></rect><path d="M82.5,82h-41c-0.829,0 -1.5,-0.672 -1.5,-1.5v-9c0,-0.828 0.671,-1.5 1.5,-1.5h41c0.829,0 1.5,0.672 1.5,1.5v9c0,0.828 -0.671,1.5 -1.5,1.5zM43,79h38v-6h-38z"></path></g></g></g></svg>